<?xml version="1.0" encoding="utf-8"?>
<!-- Generator: Adobe Illustrator 27.8.1, SVG Export Plug-In . SVG Version: 6.00 Build 0)  -->
<svg version="1.1" id="Layer_1" xmlns="http://www.w3.org/2000/svg" xmlns:xlink="http://www.w3.org/1999/xlink" x="0px" y="0px"
	 viewBox="0 0 425.2 283.46" style="enable-background:new 0 0 425.2 283.46;" xml:space="preserve">
<style type="text/css">
	.st0{fill:#FFD47D;}
	.st1{fill:none;stroke:url(#SVGID_1_);stroke-width:6.5;stroke-miterlimit:10;}
	.st2{fill:#58C2B6;}
	.st3{fill:#EE7F53;}
</style>
<g>
	<path class="st0" d="M326.89,83.3l0.43,3.2c0.1,0.73-0.42,1.41-1.15,1.51l-18.22,2.42c-0.73,0.1-1.41-0.42-1.51-1.15l-0.43-3.2
		c-0.1-0.73,0.42-1.41,1.15-1.51l18.22-2.42C326.12,82.05,326.79,82.57,326.89,83.3z"/>
	<path class="st0" d="M259.66,66.93l-2.56,1.97c-0.59,0.45-1.43,0.34-1.88-0.25l-11.2-14.57c-0.45-0.59-0.34-1.43,0.25-1.88
		l2.56-1.97c0.59-0.45,1.43-0.34,1.88,0.25l11.2,14.57C260.35,65.64,260.24,66.48,259.66,66.93z"/>
	<path class="st0" d="M289.51,64.62l-2.99-1.23c-0.68-0.28-1.01-1.07-0.73-1.75l7.01-16.99c0.28-0.68,1.07-1.01,1.75-0.73l2.99,1.23
		c0.68,0.28,1.01,1.07,0.73,1.75l-7.01,16.99C290.98,64.57,290.19,64.9,289.51,64.62z"/>
	<path class="st0" d="M256.38,89.11c1.11-8.98,8.14-16.46,17.53-17.7c11.15-1.48,21.42,6.39,22.9,17.53
		c0.74,5.61-0.88,10.98-4.1,15.14l6.17,2.54c3.55-5.26,5.27-11.77,4.37-18.54c-1.95-14.7-15.5-25.07-30.2-23.12
		c-11.76,1.56-20.71,10.55-22.83,21.61L256.38,89.11z"/>
</g>
<linearGradient id="SVGID_1_" gradientUnits="userSpaceOnUse" x1="52.053" y1="146.6515" x2="342.0491" y2="146.6515">
	<stop  offset="0.0894" style="stop-color:#58C2B6"/>
	<stop  offset="0.7765" style="stop-color:#EE7F53"/>
</linearGradient>
<polyline class="st1" points="340.81,121.73 199.44,63.48 55.3,121.73 55.3,230.08 179.19,230.08 "/>
<g>
	<path d="M210.46,239.17h-2.6l-2.21-7.25h-6.67l-2.12,7.25h-2.5l6.61-22.46h2.66L210.46,239.17z M205.07,229.55l-2.79-9.11
		l-2.69,9.11H205.07z"/>
	<path d="M212.9,235.09l2.25-0.1c0.09,0.79,0.48,1.41,1.19,1.84c0.71,0.44,1.52,0.66,2.44,0.66c0.92,0,1.72-0.21,2.39-0.63
		c0.67-0.42,1.01-1.02,1.01-1.8c0-0.78-0.29-1.4-0.87-1.86c-0.58-0.46-1.28-0.82-2.12-1.09c-0.83-0.27-1.67-0.55-2.52-0.85
		c-0.85-0.3-1.59-0.77-2.23-1.41c-0.79-0.75-1.19-1.66-1.19-2.74c0-1.08,0.43-2.09,1.3-3.02c0.87-0.93,2.27-1.39,4.22-1.39
		c0.68,0,1.33,0.08,1.92,0.24c0.6,0.16,1.03,0.32,1.28,0.47l0.39,0.22l-0.74,2.02c-0.68-0.53-1.58-0.8-2.69-0.8
		s-1.94,0.21-2.49,0.63c-0.55,0.42-0.82,0.95-0.82,1.59c0,0.71,0.34,1.26,1.03,1.67c0.68,0.41,1.45,0.75,2.31,1.03
		c0.86,0.28,1.71,0.59,2.55,0.93c0.84,0.34,1.56,0.88,2.15,1.6c0.59,0.73,0.88,1.69,0.88,2.89c0,1.2-0.48,2.24-1.44,3.13
		c-0.96,0.89-2.37,1.33-4.22,1.33s-3.3-0.44-4.35-1.32C213.49,237.46,212.94,236.38,212.9,235.09z"/>
	<path d="M228.33,235.09l2.25-0.1c0.09,0.79,0.48,1.41,1.19,1.84c0.71,0.44,1.52,0.66,2.44,0.66c0.92,0,1.72-0.21,2.39-0.63
		c0.67-0.42,1.01-1.02,1.01-1.8c0-0.78-0.29-1.4-0.87-1.86c-0.58-0.46-1.28-0.82-2.12-1.09c-0.83-0.27-1.67-0.55-2.52-0.85
		c-0.85-0.3-1.59-0.77-2.23-1.41c-0.79-0.75-1.19-1.66-1.19-2.74c0-1.08,0.43-2.09,1.3-3.02c0.87-0.93,2.27-1.39,4.22-1.39
		c0.68,0,1.33,0.08,1.92,0.24c0.6,0.16,1.03,0.32,1.28,0.47l0.39,0.22l-0.74,2.02c-0.68-0.53-1.58-0.8-2.69-0.8
		s-1.94,0.21-2.49,0.63c-0.55,0.42-0.82,0.95-0.82,1.59c0,0.71,0.34,1.26,1.03,1.67c0.68,0.41,1.45,0.75,2.31,1.03
		c0.86,0.28,1.71,0.59,2.55,0.93c0.84,0.34,1.56,0.88,2.15,1.6c0.59,0.73,0.88,1.69,0.88,2.89c0,1.2-0.48,2.24-1.44,3.13
		c-0.96,0.89-2.37,1.33-4.22,1.33s-3.3-0.44-4.35-1.32C228.92,237.46,228.37,236.38,228.33,235.09z"/>
	<path d="M246.04,234.74c0,1.82,1.07,2.73,3.21,2.73c1.33,0,2.78-0.44,4.36-1.32l0.87,1.89c-1.65,1.01-3.37,1.51-5.17,1.51
		c-3.72,0-5.58-1.56-5.58-4.68v-6.58c0-1.73,0.54-3.08,1.62-4.04c1.08-0.96,2.51-1.44,4.28-1.44c1.77,0,3.16,0.48,4.15,1.43
		c0.99,0.95,1.49,2.27,1.49,3.96v4.4l-9.24,0.48V234.74z M252.93,230.54v-2.47c0-1.13-0.35-1.94-1.06-2.42
		c-0.71-0.48-1.53-0.72-2.47-0.72c-0.94,0-1.74,0.29-2.39,0.87c-0.65,0.58-0.98,1.42-0.98,2.53v2.57L252.93,230.54z"/>
	<path d="M259.29,235.09l2.25-0.1c0.08,0.79,0.48,1.41,1.19,1.84c0.71,0.44,1.52,0.66,2.44,0.66c0.92,0,1.72-0.21,2.39-0.63
		c0.67-0.42,1.01-1.02,1.01-1.8c0-0.78-0.29-1.4-0.87-1.86c-0.58-0.46-1.28-0.82-2.12-1.09c-0.83-0.27-1.67-0.55-2.52-0.85
		c-0.84-0.3-1.59-0.77-2.23-1.41c-0.79-0.75-1.19-1.66-1.19-2.74c0-1.08,0.43-2.09,1.3-3.02c0.87-0.93,2.27-1.39,4.22-1.39
		c0.68,0,1.33,0.08,1.92,0.24c0.6,0.16,1.03,0.32,1.28,0.47l0.39,0.22l-0.74,2.02c-0.68-0.53-1.58-0.8-2.7-0.8
		c-1.11,0-1.94,0.21-2.49,0.63c-0.55,0.42-0.82,0.95-0.82,1.59c0,0.71,0.34,1.26,1.03,1.67c0.68,0.41,1.45,0.75,2.31,1.03
		c0.86,0.28,1.71,0.59,2.55,0.93c0.84,0.34,1.56,0.88,2.15,1.6c0.59,0.73,0.88,1.69,0.88,2.89c0,1.2-0.48,2.24-1.44,3.13
		c-0.96,0.89-2.37,1.33-4.22,1.33c-1.85,0-3.3-0.44-4.35-1.32C259.87,237.46,259.33,236.38,259.29,235.09z"/>
	<path d="M274.72,235.09l2.25-0.1c0.08,0.79,0.48,1.41,1.19,1.84c0.71,0.44,1.52,0.66,2.44,0.66c0.92,0,1.72-0.21,2.39-0.63
		c0.67-0.42,1.01-1.02,1.01-1.8c0-0.78-0.29-1.4-0.87-1.86c-0.58-0.46-1.28-0.82-2.12-1.09c-0.83-0.27-1.67-0.55-2.52-0.85
		c-0.84-0.3-1.59-0.77-2.23-1.41c-0.79-0.75-1.19-1.66-1.19-2.74c0-1.08,0.43-2.09,1.3-3.02c0.87-0.93,2.27-1.39,4.22-1.39
		c0.68,0,1.33,0.08,1.92,0.24c0.6,0.16,1.03,0.32,1.28,0.47l0.39,0.22l-0.74,2.02c-0.68-0.53-1.58-0.8-2.7-0.8
		c-1.11,0-1.94,0.21-2.49,0.63c-0.55,0.42-0.82,0.95-0.82,1.59c0,0.71,0.34,1.26,1.03,1.67c0.68,0.41,1.45,0.75,2.31,1.03
		c0.86,0.28,1.71,0.59,2.55,0.93c0.84,0.34,1.56,0.88,2.15,1.6c0.59,0.73,0.88,1.69,0.88,2.89c0,1.2-0.48,2.24-1.44,3.13
		c-0.96,0.89-2.37,1.33-4.22,1.33c-1.85,0-3.3-0.44-4.35-1.32C275.3,237.46,274.76,236.38,274.72,235.09z"/>
	<path d="M301.34,224.38c1.82-1.03,3.54-1.54,5.16-1.54c1.54,0,2.76,0.49,3.66,1.48c0.9,0.98,1.35,2.23,1.35,3.75v11.1h-2.31v-10.62
		c0-1.84-0.6-2.96-1.8-3.37c-0.45-0.13-0.83-0.19-1.14-0.19c-0.31,0-0.66,0.01-1.04,0.03c-0.39,0.02-0.94,0.17-1.67,0.45l-0.99,0.48
		c0.28,0.6,0.42,1.27,0.42,2.02v11.2h-2.31v-10.59c0-1-0.24-1.81-0.71-2.41c-0.6-0.79-1.5-1.19-2.7-1.19s-2.35,0.32-3.46,0.96v13.22
		h-2.31V223.1h2.18l0.03,0.8c1.22-0.68,2.55-1.03,3.99-1.03C299.14,222.87,300.36,223.37,301.34,224.38z"/>
	<path d="M317.67,234.74c0,1.82,1.07,2.73,3.21,2.73c1.33,0,2.78-0.44,4.36-1.32l0.87,1.89c-1.65,1.01-3.37,1.51-5.16,1.51
		c-3.72,0-5.58-1.56-5.58-4.68v-6.58c0-1.73,0.54-3.08,1.62-4.04c1.08-0.96,2.51-1.44,4.28-1.44s3.16,0.48,4.15,1.43
		c0.99,0.95,1.49,2.27,1.49,3.96v4.4l-9.24,0.48V234.74z M324.57,230.54v-2.47c0-1.13-0.35-1.94-1.06-2.42
		c-0.71-0.48-1.53-0.72-2.47-0.72c-0.94,0-1.74,0.29-2.39,0.87c-0.65,0.58-0.98,1.42-0.98,2.53v2.57L324.57,230.54z"/>
	<path d="M334.03,223.93c0.98-0.73,2.31-1.09,3.98-1.09c1.09,0,2.06,0.19,2.92,0.58c1.82,0.83,2.73,2.38,2.73,4.65v11.1h-2.31
		v-10.75c0-1.26-0.39-2.15-1.15-2.68c-0.77-0.52-1.68-0.79-2.74-0.79s-2.17,0.32-3.32,0.96v13.25h-2.31V223.1H334L334.03,223.93z"/>
	<path d="M353.34,237.79l-0.67,1.8c-1.37-0.26-2.35-0.77-2.95-1.54c-0.6-0.77-0.9-1.81-0.9-3.11v-18.22h2.34v6.38h3.59l-0.77,2.18
		h-2.82v9.66C351.16,236.45,351.89,237.4,353.34,237.79z"/>
	<path d="M358.25,235.09l2.25-0.1c0.09,0.79,0.48,1.41,1.19,1.84c0.71,0.44,1.52,0.66,2.44,0.66c0.92,0,1.72-0.21,2.39-0.63
		c0.67-0.42,1.01-1.02,1.01-1.8c0-0.78-0.29-1.4-0.87-1.86c-0.58-0.46-1.28-0.82-2.12-1.09c-0.83-0.27-1.67-0.55-2.52-0.85
		c-0.85-0.3-1.59-0.77-2.23-1.41c-0.79-0.75-1.19-1.66-1.19-2.74c0-1.08,0.43-2.09,1.3-3.02c0.87-0.93,2.27-1.39,4.22-1.39
		c0.68,0,1.33,0.08,1.92,0.24c0.6,0.16,1.03,0.32,1.28,0.47l0.39,0.22l-0.74,2.02c-0.68-0.53-1.58-0.8-2.69-0.8
		c-1.11,0-1.94,0.21-2.49,0.63c-0.55,0.42-0.82,0.95-0.82,1.59c0,0.71,0.34,1.26,1.03,1.67c0.68,0.41,1.45,0.75,2.31,1.03
		c0.86,0.28,1.7,0.59,2.55,0.93c0.84,0.34,1.56,0.88,2.15,1.6c0.59,0.73,0.88,1.69,0.88,2.89c0,1.2-0.48,2.24-1.44,3.13
		c-0.96,0.89-2.37,1.33-4.22,1.33c-1.85,0-3.3-0.44-4.35-1.32C358.84,237.46,358.29,236.38,358.25,235.09z"/>
</g>
<path class="st2" d="M114.57,197.45H84.99v-62.38h29.76v9.8H94.79v15.77H107l-2.76,9.36h-9.45v18.53h19.78V197.45z"/>
<path class="st2" d="M149.59,187.3l2.67,9.62c-3.8,1.01-7.34,1.52-10.6,1.52c-2.91,0-5.61-0.39-8.11-1.16
	c-3.51-1.19-6.05-3.01-7.62-5.48c-1.57-2.46-2.36-5.93-2.36-10.38v-11.41c0-4.22,0.83-7.75,2.49-10.6c1.66-2.85,3.86-4.84,6.59-5.97
	c2.26-0.95,4.75-1.43,7.48-1.43c0.53,0,1.1,0.03,1.69,0.09c3.39,0.24,6.8,1.16,10.25,2.76l-2.67,8.47c-3.09-1.07-5.73-1.6-7.93-1.6
	c-1.6,0-2.94,0.27-4.01,0.8c-2.73,1.31-4.1,3.62-4.1,6.95v12.92c0,1.96,0.68,3.46,2.05,4.5c1.37,1.04,3,1.59,4.9,1.65
	c0.36,0,0.74,0,1.16,0c1.48,0,2.88-0.09,4.19-0.27C147.33,188.04,148.64,187.71,149.59,187.3z"/>
<path class="st2" d="M195.57,169.3v11.76c0,4.99-1.37,9.12-4.1,12.39c-2.73,3.27-6.86,4.9-12.39,4.9c-5.53,0-9.7-1.65-12.52-4.95
	c-2.82-3.3-4.23-7.41-4.23-12.34V169.3c0-5.64,1.44-9.96,4.32-12.96c2.88-3,7.02-4.5,12.43-4.5c5.17,0,9.21,1.56,12.12,4.68
	C194.11,159.63,195.57,163.89,195.57,169.3z M185.86,181.95V169.3c0-1.72-0.21-3.13-0.62-4.23c-0.42-1.1-1.02-1.87-1.83-2.32
	c-0.8-0.45-1.51-0.73-2.14-0.85c-0.62-0.12-1.35-0.18-2.18-0.18c-4.63,0-6.95,2.53-6.95,7.57v12.65c0,4.51,2.32,6.77,6.95,6.77
	c1.96,0,3.58-0.56,4.86-1.69C185.22,185.9,185.86,184.21,185.86,181.95z"/>
<path class="st3" d="M262.61,197.45h-6.51l-30.92-49.9v49.9h-6.42v-62.38h6.42l30.92,49.81v-49.81h6.51V197.45z"/>
<path class="st3" d="M280.16,185.16c0,5.05,2.97,7.57,8.91,7.57c3.68,0,7.72-1.22,12.12-3.65l2.41,5.26
	c-4.57,2.79-9.36,4.19-14.35,4.19c-10.34,0-15.5-4.34-15.5-13.01v-18.27c0-4.81,1.5-8.55,4.5-11.23c3-2.67,6.96-4.01,11.9-4.01
	c4.93,0,8.78,1.32,11.54,3.97c2.76,2.64,4.14,6.31,4.14,11v12.21l-25.66,1.34V185.16z M299.32,173.48v-6.86
	c0-3.15-0.98-5.39-2.94-6.73c-1.96-1.34-4.25-2-6.86-2c-2.61,0-4.83,0.8-6.64,2.41c-1.81,1.6-2.72,3.95-2.72,7.04v7.13
	L299.32,173.48z"/>
<path class="st3" d="M313.4,186.14l6.24-0.27c0.24,2.2,1.34,3.91,3.3,5.12c1.96,1.22,4.22,1.83,6.77,1.83
	c2.55,0,4.77-0.58,6.64-1.74c1.87-1.16,2.81-2.82,2.81-4.99c0-2.17-0.8-3.89-2.41-5.17c-1.6-1.28-3.56-2.29-5.88-3.03
	c-2.32-0.74-4.65-1.53-6.99-2.36c-2.35-0.83-4.41-2.14-6.19-3.92c-2.2-2.08-3.3-4.62-3.3-7.62c0-3,1.2-5.79,3.61-8.38
	c2.41-2.58,6.31-3.88,11.72-3.88c1.9,0,3.68,0.22,5.35,0.67c1.66,0.45,2.85,0.88,3.56,1.29l1.07,0.62l-2.05,5.61
	c-1.9-1.48-4.4-2.23-7.49-2.23c-3.09,0-5.39,0.58-6.91,1.74c-1.51,1.16-2.27,2.63-2.27,4.41c0,1.96,0.95,3.51,2.85,4.63
	c1.9,1.13,4.04,2.08,6.42,2.85c2.38,0.77,4.74,1.63,7.08,2.58c2.35,0.95,4.34,2.44,5.97,4.46c1.63,2.02,2.45,4.69,2.45,8.02
	c0,3.33-1.34,6.22-4.01,8.69c-2.67,2.46-6.58,3.7-11.72,3.7c-5.14,0-9.16-1.22-12.07-3.65C315.03,192.7,313.52,189.7,313.4,186.14z"
	/>
<path class="st3" d="M365.97,193.62l-1.87,4.99c-3.8-0.71-6.54-2.14-8.2-4.28c-1.66-2.14-2.5-5.02-2.5-8.64v-50.61h6.51v17.73h9.98
	l-2.14,6.06h-7.84v26.82C359.91,189.91,361.93,192.55,365.97,193.62z"/>
</svg>
